<svg width="32" height="32" viewBox="0 0 32 32" fill="none" xmlns="http://www.w3.org/2000/svg">
<path d="M15.3312 1.51615C13.9696 0.589733 12.1882 0 9.94089 0H0V32H10.5667C12.4281 32 13.9816 31.5925 15.2412 30.8977C9.86492 28.7061 6.0761 23.3878 6.0761 16.2059C6.0761 9.02399 9.9069 3.67136 15.3312 1.51615ZM18.3623 5.55636C19.188 5.32476 20.0617 5.20038 20.9734 5.20038C24.1664 5.20038 26.3938 6.9803 27.8833 9.26417L31.97 6.79802C29.6707 3.28321 26.5077 0.452486 20.9734 0.452486C18.9761 0.452486 17.0727 0.821338 15.3292 1.51401C17.9684 2.13591 18.9101 2.4297 18.9101 2.4297C18.9101 2.4297 18.5122 5.07599 18.3603 5.55636M18.6742 26.9755C19.14 25.8346 19.3779 24.5887 19.3779 23.317C19.3779 19.191 16.9187 16.5104 13.6977 15.9828C16.6048 15.3116 18.7961 12.1378 18.7961 8.15547C18.7961 7.30411 18.6502 6.41844 18.3623 5.55636C14.1116 6.74869 11.1845 10.8511 11.1845 16.2037C11.1845 21.5564 14.2555 25.8904 18.6762 26.9755M27.7013 18.4147V24.5136C26.4237 25.7917 23.8705 27.2521 20.9754 27.2521C20.1777 27.2521 19.4079 27.1556 18.6762 26.9755C18.3843 27.6874 18.0024 28.3565 17.5265 28.9613C16.9207 29.729 16.1609 30.3895 15.2412 30.8977C17.0067 31.6183 18.9441 32 20.9754 32C25.9139 32 29.1909 29.8083 32 26.4758V13.7118H21.7492V18.4147H27.7013Z" fill="#006154"/>
</svg>
