<svg width="124" height="50" viewBox="0 0 124 50" fill="none" xmlns="http://www.w3.org/2000/svg">
<g id="Logo">
<path id="Vector" d="M25.8709 2.36899C23.5733 0.921458 20.5671 0 16.7749 0H0V50H17.8309C20.972 50 23.5935 49.3634 25.719 48.2777C16.6467 44.8532 10.2532 36.5434 10.2532 25.3217C10.2532 14.1 16.7175 5.7365 25.8709 2.36899ZM30.9857 8.68181C32.3791 8.31993 33.8535 8.12559 35.3919 8.12559C40.78 8.12559 44.5385 10.9067 47.0521 14.4753L53.9482 10.6219C50.0683 5.13001 44.7308 0.70701 35.3919 0.70701C32.0214 0.70701 28.8095 1.28334 25.8675 2.36563C30.321 3.33735 31.9101 3.79641 31.9101 3.79641C31.9101 3.79641 31.2387 7.93124 30.9823 8.68181M31.512 42.1492C32.2981 40.3666 32.6996 38.4198 32.6996 36.4328C32.6996 29.9859 28.5497 25.7975 23.1144 24.9732C28.02 23.9244 31.7178 18.9653 31.7178 12.7429C31.7178 11.4127 31.4715 10.0288 30.9857 8.68181C23.8128 10.5448 18.8735 16.9548 18.8735 25.3183C18.8735 33.6818 24.0557 40.4537 31.5154 42.1492M46.745 28.773V38.3025C44.5891 40.2996 40.2807 42.5814 35.3953 42.5814C34.0491 42.5814 32.7502 42.4306 31.5154 42.1492C31.0228 43.2616 30.3784 44.3071 29.5754 45.252C28.5531 46.4516 27.271 47.4836 25.719 48.2777C28.6982 49.4036 31.9675 50 35.3953 50C43.7288 50 49.2586 46.5755 53.9989 41.3685V21.4247H36.701V28.773H46.745Z" fill="#006154"/>
<g id="Group">
<path id="Vector_2" d="M93.3349 35.4678H94.563C94.897 35.4678 95.1669 35.5616 95.3727 35.7492C95.5785 35.9369 95.6797 36.1848 95.6797 36.4864C95.6797 36.788 95.5819 37.0359 95.3896 37.2236C95.1973 37.4112 94.9375 37.505 94.6204 37.505H93.3349V35.4644V35.4678ZM93.3349 41.5996V39.1502H94.6642C95.2209 39.1502 95.7169 39.0363 96.1487 38.8051C96.5806 38.5773 96.918 38.2623 97.1609 37.8635C97.4038 37.4648 97.5253 37.0058 97.5253 36.4897C97.5253 35.9737 97.4004 35.5147 97.1508 35.1159C96.9011 34.7172 96.557 34.4056 96.1184 34.1777C95.6798 33.9532 95.177 33.8393 94.6102 33.8393H91.54V41.603H93.3383L93.3349 41.5996ZM88.5946 41.3651C89.0906 41.1138 89.4684 40.7586 89.735 40.2962C89.9981 39.8338 90.1331 39.2843 90.1331 38.6476V33.8359H88.3348V38.6476C88.3348 38.9425 88.2741 39.1972 88.156 39.4116C88.0379 39.626 87.8659 39.7936 87.6432 39.9109C87.4205 40.0281 87.1607 40.0885 86.8604 40.0885C86.5602 40.0885 86.2936 40.0281 86.0743 39.9109C85.855 39.7936 85.6863 39.626 85.5649 39.4116C85.4468 39.1972 85.3861 38.9425 85.3861 38.6476V33.8359H83.5878V38.6476C83.5878 39.2843 83.7194 39.8338 83.9792 40.2962C84.2389 40.7586 84.6134 41.1138 85.1027 41.3651C85.5919 41.6164 86.1688 41.7437 86.8402 41.7437C87.5116 41.7437 88.1054 41.6164 88.598 41.3651M77.3697 39.7902C77.0256 39.5892 76.7591 39.3111 76.5668 38.9525C76.3744 38.594 76.2766 38.1819 76.2766 37.7161C76.2766 37.2504 76.3744 36.8483 76.5668 36.4897C76.7591 36.1312 77.0256 35.8497 77.3596 35.6453C77.6936 35.4409 78.0816 35.3404 78.5202 35.3404C78.9588 35.3404 79.3468 35.4409 79.6808 35.6453C80.0149 35.8497 80.2814 36.1312 80.4737 36.4897C80.666 36.8483 80.7639 37.2604 80.7639 37.7262C80.7639 38.1919 80.6694 38.594 80.4838 38.9525C80.2983 39.3111 80.0385 39.5892 79.7011 39.7902C79.3637 39.9913 78.9791 40.0885 78.5405 40.0885C78.1019 40.0885 77.7105 39.9879 77.3664 39.7902M80.6491 41.2143C81.2598 40.8692 81.7389 40.3967 82.083 39.7936C82.4305 39.1904 82.6026 38.5002 82.6026 37.7262C82.6026 36.9521 82.4272 36.2485 82.0763 35.6453C81.7254 35.0422 81.2429 34.5698 80.6289 34.2246C80.0149 33.8795 79.3097 33.7086 78.5135 33.7086C77.7172 33.7086 77.0121 33.8795 76.3981 34.2246C75.784 34.5698 75.3015 35.0422 74.9507 35.6453C74.5998 36.2485 74.4243 36.9421 74.4243 37.7262C74.4243 38.5102 74.5998 39.1904 74.9507 39.7936C75.3015 40.3967 75.784 40.8692 76.4014 41.2143C77.0189 41.5594 77.7307 41.7303 78.5337 41.7303C79.3367 41.7303 80.0351 41.5594 80.6458 41.2143M69.3433 35.4644H70.5275C70.8615 35.4644 71.1314 35.5515 71.3372 35.7291C71.5431 35.9067 71.6443 36.1312 71.6443 36.406C71.6443 36.5836 71.597 36.7444 71.5059 36.8885C71.4115 37.0326 71.2833 37.1465 71.1213 37.2269C70.956 37.3073 70.7704 37.3475 70.5646 37.3475H69.3467V35.4611L69.3433 35.4644ZM73.844 41.5963L71.3777 37.5251L70.0282 38.5136L71.7927 41.5963H73.8474H73.844ZM69.3433 41.5963V38.9894H70.5815C71.1551 38.9894 71.6645 38.8788 72.1065 38.661C72.5485 38.4432 72.896 38.1383 73.149 37.7463C73.4021 37.3542 73.5303 36.9086 73.5303 36.406C73.5303 35.9034 73.4054 35.4577 73.1558 35.069C72.9061 34.6803 72.562 34.3788 72.1234 34.161C71.6848 33.9432 71.1821 33.8326 70.6152 33.8326H67.545V41.5963H69.3433ZM65.5578 38.7113L66.5632 38.3896V37.3375H63.0679V38.7113H65.5578ZM64.8527 41.3282C65.3824 41.0635 65.7973 40.6681 66.1044 40.1454C66.408 39.6227 66.5632 38.9861 66.5632 38.2321L64.856 38.5203C64.856 38.8386 64.7784 39.1167 64.6199 39.3513C64.4647 39.5892 64.2521 39.7735 63.9822 39.9042C63.7157 40.0382 63.4053 40.1052 63.0544 40.1052C62.5922 40.1052 62.1873 40.0013 61.8364 39.7936C61.4855 39.5858 61.219 39.3044 61.0334 38.9458C60.8479 38.5873 60.7534 38.1752 60.7534 37.7094C60.7534 37.2437 60.8512 36.8315 61.0436 36.473C61.2359 36.1145 61.5024 35.8363 61.8432 35.6353C62.1806 35.4342 62.5719 35.3371 63.0105 35.3371C63.2332 35.3371 63.4525 35.3773 63.6684 35.4544C63.8844 35.5314 64.0834 35.642 64.2656 35.7827C64.4478 35.9235 64.5962 36.0809 64.7076 36.2585L66.1921 35.3706C65.9897 35.0456 65.7366 34.7574 65.433 34.5061C65.1293 34.2548 64.7717 34.0571 64.3668 33.913C63.962 33.7689 63.5099 33.6952 63.0105 33.6952C62.2075 33.6952 61.499 33.8661 60.8816 34.2112C60.2676 34.5564 59.7851 35.0288 59.4342 35.6319C59.0833 36.2351 58.9079 36.9287 58.9079 37.7128C58.9079 38.4968 59.0833 39.1904 59.4342 39.7936C59.7851 40.3967 60.2676 40.8692 60.8816 41.2143C61.4957 41.5594 62.2042 41.7303 63.0105 41.7303C63.7089 41.7303 64.323 41.5963 64.8527 41.3316" fill="#006154"/>
<path id="Vector_3" d="M122.995 26.4375L124 26.1158V25.0637H120.505V26.4375H122.995ZM122.289 29.0544C122.819 28.7897 123.234 28.3943 123.541 27.8716C123.845 27.3489 124 26.7122 124 25.9583L122.293 26.2465C122.293 26.5648 122.215 26.8429 122.057 27.0775C121.901 27.3154 121.689 27.4997 121.419 27.6303C121.152 27.7644 120.842 27.8314 120.491 27.8314C120.029 27.8314 119.624 27.7275 119.273 27.5198C118.922 27.312 118.656 27.0306 118.47 26.672C118.285 26.3135 118.19 25.9014 118.19 25.4356C118.19 24.9698 118.288 24.5577 118.48 24.1992C118.673 23.8406 118.939 23.5625 119.28 23.3615C119.617 23.1604 120.009 23.0633 120.447 23.0633C120.67 23.0633 120.889 23.1035 121.105 23.1805C121.321 23.2576 121.52 23.3682 121.702 23.5089C121.885 23.6496 122.033 23.8071 122.144 23.9847L123.629 23.0968C123.426 22.7717 123.173 22.4836 122.87 22.2323C122.566 21.981 122.209 21.7833 121.804 21.6392C121.399 21.4951 120.947 21.4214 120.447 21.4214C119.644 21.4214 118.936 21.5923 118.318 21.9374C117.704 22.2825 117.222 22.755 116.871 23.3581C116.52 23.9613 116.345 24.6549 116.345 25.4389C116.345 26.223 116.52 26.9166 116.871 27.5198C117.222 28.1229 117.704 28.5954 118.318 28.9405C118.932 29.2856 119.641 29.4565 120.447 29.4565C121.146 29.4565 121.76 29.3225 122.289 29.0578M111.267 23.1906H112.451C112.785 23.1906 113.055 23.2777 113.261 23.4553C113.467 23.6329 113.568 23.8574 113.568 24.1321C113.568 24.3097 113.521 24.4706 113.43 24.6147C113.335 24.7587 113.207 24.8727 113.045 24.9531C112.88 25.0335 112.694 25.0737 112.488 25.0737H111.27V23.1872L111.267 23.1906ZM115.768 29.3225L113.301 25.2513L111.952 26.2398L113.716 29.3225H115.771H115.768ZM111.267 29.3225V26.7156H112.505C113.079 26.7156 113.585 26.605 114.03 26.3872C114.472 26.1694 114.82 25.8645 115.073 25.4725C115.326 25.0804 115.454 24.6348 115.454 24.1321C115.454 23.6295 115.329 23.1839 115.08 22.7952C114.83 22.4065 114.486 22.1049 114.047 21.8871C113.609 21.6693 113.106 21.5588 112.539 21.5588H109.469V29.3225H111.267ZM108.062 29.3225V27.6806H104.712V26.2063H107.471V24.6214H104.712V23.2006H108.005V21.5588H102.913V29.3225H108.062ZM97.8222 22.956H98.6825C98.9861 22.956 99.2324 23.0298 99.4146 23.1738C99.5968 23.3179 99.6879 23.5223 99.6879 23.7904C99.6879 24.0584 99.6036 24.2494 99.4315 24.3935C99.2594 24.5376 99.0334 24.6113 98.75 24.6113H97.8222V22.9594V22.956ZM97.8222 26.0387H98.9153C99.2426 26.0387 99.499 26.1158 99.6845 26.2666C99.8701 26.4174 99.9646 26.6285 99.9646 26.8932C99.9646 27.1445 99.8768 27.3489 99.698 27.5097C99.5192 27.6672 99.2763 27.7476 98.9727 27.7476H97.8222V26.0387ZM99.1717 29.3225C99.7014 29.3225 100.16 29.2354 100.555 29.0611C100.95 28.8869 101.26 28.6322 101.483 28.2971C101.705 27.9621 101.817 27.5499 101.817 27.0607C101.817 26.6251 101.722 26.2565 101.533 25.9583C101.344 25.6601 101.071 25.4155 100.714 25.2312C100.967 25.0402 101.166 24.8224 101.311 24.5812C101.456 24.3399 101.53 24.0852 101.53 23.8105C101.53 23.3012 101.415 22.879 101.183 22.5472C100.953 22.2155 100.633 21.9676 100.221 21.8034C99.8127 21.6392 99.3404 21.5588 98.804 21.5588H96.0677V29.3225H99.1717ZM95.2074 29.3225L91.2431 24.3198L89.9138 25.3719L92.984 29.3191H95.2074V29.3225ZM90.1264 21.5588H88.3382V29.3225H90.1264V21.5588ZM95.0961 21.5588H92.7512L89.2896 25.2949L89.3774 27.6806L95.0961 21.5588ZM85.3253 29.1549C85.801 28.9539 86.216 28.6758 86.5635 28.3172C86.9144 27.9587 87.1776 27.5432 87.3564 27.0708L85.6695 26.5045C85.5413 26.7625 85.3928 26.9937 85.2174 27.1914C85.0419 27.3924 84.8361 27.5466 84.5966 27.6571C84.357 27.7677 84.0871 27.8247 83.7801 27.8247C83.3617 27.8247 82.994 27.7242 82.6701 27.5198C82.3462 27.3154 82.0932 27.0339 81.911 26.6754C81.7288 26.3168 81.6377 25.9047 81.6377 25.4389C81.6377 24.9732 81.7254 24.561 81.9042 24.2025C82.083 23.844 82.3327 23.5659 82.6532 23.3648C82.9737 23.1638 83.3381 23.0666 83.7464 23.0666C84.0365 23.0666 84.303 23.1169 84.546 23.2207C84.7889 23.3246 85.0048 23.4721 85.1937 23.663C85.3827 23.854 85.5345 24.0819 85.6459 24.3399L87.3328 23.7736C87.1472 23.3079 86.8807 22.8991 86.5332 22.5439C86.1857 22.1887 85.7774 21.9139 85.3051 21.7163C84.8327 21.5219 84.3132 21.4214 83.7464 21.4214C82.9704 21.4214 82.2888 21.5923 81.6984 21.9374C81.108 22.2825 80.6424 22.755 80.3016 23.3581C79.9642 23.9613 79.7922 24.6549 79.7922 25.4389C79.7922 26.223 79.9609 26.9166 80.3016 27.5198C80.639 28.1229 81.1046 28.5954 81.6984 28.9405C82.2888 29.2856 82.9737 29.4565 83.7464 29.4565C84.3199 29.4565 84.8429 29.356 85.322 29.1583M78.6214 26.2733H73.4729V27.8481H78.6214V26.2733ZM73.9419 29.3225L76.867 21.5588H75.0789L72.0424 29.3225H73.9419ZM80.0385 29.3225L77.002 21.5588H75.2138L78.139 29.3225H80.0385ZM71.3069 29.3225V27.6806H67.9802V21.5588H66.182V29.3225H71.3069ZM61.0874 22.956H61.9478C62.2514 22.956 62.4977 23.0298 62.6799 23.1738C62.8621 23.3179 62.9532 23.5223 62.9532 23.7904C62.9532 24.0584 62.8688 24.2494 62.6968 24.3935C62.5247 24.5376 62.2986 24.6113 62.0152 24.6113H61.0874V22.9594V22.956ZM61.0874 26.0387H62.1806C62.5078 26.0387 62.7642 26.1158 62.9498 26.2666C63.1354 26.4174 63.2298 26.6285 63.2298 26.8932C63.2298 27.1445 63.1421 27.3489 62.9633 27.5097C62.7845 27.6672 62.5416 27.7476 62.2379 27.7476H61.0874V26.0387ZM62.437 29.3225C62.9667 29.3225 63.4255 29.2354 63.8203 29.0611C64.215 28.8869 64.5254 28.6322 64.7481 28.2971C64.9708 27.9621 65.0821 27.5499 65.0821 27.0607C65.0821 26.6251 64.9876 26.2565 64.7987 25.9583C64.6097 25.6601 64.3365 25.4155 63.9788 25.2312C64.2319 25.0402 64.4309 24.8224 64.576 24.5812C64.7211 24.3399 64.7953 24.0852 64.7953 23.8105C64.7953 23.3012 64.6806 22.879 64.4478 22.5472C64.2184 22.2155 63.8979 21.9676 63.4862 21.8034C63.078 21.6392 62.6057 21.5588 62.0692 21.5588H59.333V29.3225H62.437Z" fill="#006154"/>
</g>
</g>
</svg>
