<svg width="24" height="24" viewBox="0 0 24 24" fill="none" xmlns="http://www.w3.org/2000/svg">
<path d="M19.5 2L19.5 7M19.5 17L19.5 22M22 19.5L17 19.5M22 4.5L17 4.5M11 21L12.7342 16.4911C13.0162 15.7579 13.1572 15.3913 13.3765 15.0829C13.5708 14.8096 13.8096 14.5708 14.0829 14.3765C14.3913 14.1572 14.7579 14.0162 15.4911 13.7342L20 12L15.4911 10.2658C14.7579 9.98381 14.3913 9.8428 14.0829 9.62353C13.8096 9.42919 13.5708 9.1904 13.3765 8.91709C13.1572 8.60871 13.0162 8.24209 12.7342 7.50886L11 3L9.26582 7.50886C8.98381 8.24209 8.8428 8.60871 8.62353 8.91708C8.42919 9.1904 8.1904 9.42919 7.91709 9.62353C7.60871 9.8428 7.24209 9.98381 6.50886 10.2658L2 12L6.50886 13.7342C7.24209 14.0162 7.60871 14.1572 7.91709 14.3765C8.1904 14.5708 8.42919 14.8096 8.62353 15.0829C8.8428 15.3913 8.98381 15.7579 9.26582 16.4911L11 21Z" stroke="black" stroke-width="2" stroke-linecap="round" stroke-linejoin="round"/>
</svg>
