<svg width="391" height="226" viewBox="0 0 391 226" fill="none" xmlns="http://www.w3.org/2000/svg">
<g clip-path="url(#clip0_132_1196)">
<path d="M141.397 81.5732L106.492 136C105.541 137.482 103.569 137.913 102.087 136.963L22.9364 86.2019C21.4543 85.2514 21.0232 83.2793 21.9737 81.7973L56.8785 27.3704C57.829 25.8883 59.8011 25.4572 61.2832 26.4077L140.434 77.1686C141.916 78.1189 142.347 80.0911 141.397 81.5732Z" fill="#D5D6DB"/>
<path d="M134.785 108.998L78.7892 141.327C77.2644 142.207 75.3145 141.685 74.4342 140.16L27.4195 58.728C26.5391 57.2031 27.0616 55.2533 28.5865 54.3729L84.5818 22.0439C86.1067 21.1635 88.0565 21.686 88.9369 23.2109L135.952 104.643C136.832 106.168 136.309 108.117 134.785 108.998Z" fill="#E1E6E9"/>
<path d="M112.473 102.531L84.3428 118.772L86.2971 122.157L114.427 105.916L112.473 102.531Z" fill="#D5D6DB"/>
<path d="M112.427 86.2081L70.2312 110.57L72.1855 113.955L114.381 89.593L112.427 86.2081Z" fill="#D5D6DB"/>
<path d="M98.3163 78.0104L70.186 94.2514L72.1403 97.6364L100.271 81.3954L98.3163 78.0104Z" fill="#D5D6DB"/>
<path d="M98.2641 61.6769L56.0681 86.0387L58.0224 89.4237L100.218 65.0618L98.2641 61.6769Z" fill="#D5D6DB"/>
<path d="M84.1522 53.4776L56.022 69.7186L57.9763 73.1036L86.1065 56.8626L84.1522 53.4776Z" fill="#D5D6DB"/>
<path d="M84.1059 37.154L41.9099 61.5159L43.8642 64.9008L86.0602 40.539L84.1059 37.154Z" fill="#D5D6DB"/>
</g>
<g clip-path="url(#clip1_132_1196)">
<path d="M321.107 182.903L262 156.692C260.391 155.979 259.664 154.095 260.378 152.486L298.495 66.5286C299.209 64.9189 301.092 64.1927 302.702 64.9065L361.809 91.117C363.419 91.8308 364.145 93.7142 363.431 95.3238L325.314 181.281C324.6 182.89 322.717 183.617 321.107 182.903Z" fill="#E1E6E9"/>
<path d="M313.192 161.063L283.499 147.896L281.914 151.469L311.608 164.636L313.192 161.063Z" fill="#D5D6DB"/>
<path d="M326.356 151.412L281.815 131.661L280.231 135.234L324.772 154.985L326.356 151.412Z" fill="#D5D6DB"/>
<path d="M324.67 135.18L294.976 122.013L293.392 125.586L323.085 138.753L324.67 135.18Z" fill="#D5D6DB"/>
<path d="M337.839 125.518L293.298 105.767L291.714 109.34L336.255 129.091L337.839 125.518Z" fill="#D5D6DB"/>
<path d="M336.153 109.284L306.46 96.1168L304.875 99.6899L334.569 112.857L336.153 109.284Z" fill="#D5D6DB"/>
<path d="M349.318 99.6322L304.777 79.881L303.192 83.454L347.733 103.205L349.318 99.6322Z" fill="#D5D6DB"/>
</g>
<g clip-path="url(#clip2_132_1196)">
<path d="M176.048 54.2458V41.8998C176.048 40.5565 174.959 39.4673 173.616 39.4673H127.983C126.64 39.4673 125.551 40.5565 125.551 41.8998V54.2458H108.144C105.457 54.2458 103.279 56.4241 103.279 59.1108V168.529H285.722V59.1108C285.722 56.4237 283.543 54.2458 280.857 54.2458H176.048Z" fill="#FCD462"/>
<path d="M266.803 205.533H122.197C115.356 205.533 109.508 200.608 108.344 193.867L91.0415 93.6626C90.7449 91.9439 92.0679 90.3725 93.8121 90.3725H295.187C296.931 90.3725 298.255 91.9439 297.958 93.6626L280.656 193.867C279.492 200.608 273.644 205.533 266.803 205.533Z" fill="#F6C358"/>
</g>
<defs>
<clipPath id="clip0_132_1196">
<rect width="119.595" height="119.595" fill="white" transform="translate(0 59.7977) rotate(-30)"/>
</clipPath>
<clipPath id="clip1_132_1196">
<rect width="119.595" height="119.595" fill="white" transform="translate(281.481 45) rotate(23.9144)"/>
</clipPath>
<clipPath id="clip2_132_1196">
<rect width="207" height="207" fill="white" transform="translate(91 19)"/>
</clipPath>
</defs>
</svg>
