<svg width="40" height="40" viewBox="0 0 40 40" fill="none" xmlns="http://www.w3.org/2000/svg">
<path d="M7.75 4C7.75 2.20508 9.20508 0.75 11 0.75H27C27.1212 0.75 27.2375 0.798159 27.3232 0.883885L38.1161 11.6768C38.2018 11.7625 38.25 11.8788 38.25 12V36C38.25 37.7949 36.7949 39.25 35 39.25H11C9.20507 39.25 7.75 37.7949 7.75 36V4Z" stroke="#D0D5DD" stroke-width="1.5"/>
<path d="M27 0.5V8C27 10.2091 28.7909 12 31 12H38.5" stroke="#D0D5DD" stroke-width="1.5"/>
<path d="M0.5 20C0.5 18.8954 1.39543 18 2.5 18H25.5C26.6046 18 27.5 18.8954 27.5 20V32C27.5 33.1046 26.6046 34 25.5 34H2.5C1.39543 34 0.5 33.1046 0.5 32V20Z" fill="#008072"/>
<path d="M4.07191 23.995V22.7273H10.0449V23.995H7.81836V30H6.29847V23.995H4.07191ZM11.0286 30V22.7273H13.9405C14.4756 22.7273 14.9218 22.8066 15.2793 22.9652C15.6368 23.1238 15.9055 23.344 16.0854 23.6257C16.2653 23.9051 16.3553 24.227 16.3553 24.5916C16.3553 24.8757 16.2985 25.1255 16.1848 25.3409C16.0712 25.554 15.915 25.7292 15.7161 25.8665C15.5196 26.0014 15.2947 26.0973 15.0414 26.1541V26.2251C15.3184 26.237 15.5776 26.3151 15.8191 26.4595C16.0629 26.6039 16.2606 26.8063 16.4121 27.0668C16.5636 27.3248 16.6394 27.6326 16.6394 27.9901C16.6394 28.3759 16.5435 28.7204 16.3517 29.0234C16.1623 29.3241 15.8818 29.562 15.5101 29.7372C15.1384 29.9124 14.6803 30 14.1358 30H11.0286ZM12.5662 28.7429H13.8198C14.2483 28.7429 14.5608 28.6612 14.7573 28.4979C14.9538 28.3321 15.052 28.112 15.052 27.8374C15.052 27.6361 15.0035 27.4586 14.9064 27.3047C14.8094 27.1508 14.6709 27.0301 14.4909 26.9425C14.3134 26.8549 14.1015 26.8111 13.8553 26.8111H12.5662V28.7429ZM12.5662 25.7706H13.7061C13.9168 25.7706 14.1039 25.7339 14.2672 25.6605C14.4329 25.5848 14.5632 25.4782 14.6578 25.3409C14.7549 25.2036 14.8034 25.0391 14.8034 24.8473C14.8034 24.5845 14.7099 24.3726 14.5229 24.2116C14.3382 24.0507 14.0755 23.9702 13.7346 23.9702H12.5662V25.7706ZM20.218 30H17.6399V22.7273H20.2393C20.9709 22.7273 21.6006 22.8729 22.1286 23.1641C22.6565 23.4529 23.0625 23.8684 23.3466 24.4105C23.633 24.9527 23.7763 25.6013 23.7763 26.3565C23.7763 27.1141 23.633 27.7652 23.3466 28.3097C23.0625 28.8542 22.6541 29.272 22.1214 29.5632C21.5911 29.8544 20.9567 30 20.218 30ZM19.1776 28.6825H20.1541C20.6087 28.6825 20.991 28.602 21.3011 28.4411C21.6136 28.2777 21.848 28.0256 22.0043 27.6847C22.1629 27.3414 22.2422 26.8987 22.2422 26.3565C22.2422 25.8191 22.1629 25.38 22.0043 25.0391C21.848 24.6982 21.6148 24.4472 21.3047 24.2862C20.9946 24.1252 20.6122 24.0447 20.1577 24.0447H19.1776V28.6825Z" fill="white"/>
</svg>
