<svg width="16" height="16" viewBox="0 0 16 16" fill="none" xmlns="http://www.w3.org/2000/svg">
<g id="star-01">
<path id="Icon" d="M7.52175 2.3022C7.6754 1.99091 7.75223 1.83526 7.85653 1.78553C7.94728 1.74227 8.0527 1.74227 8.14345 1.78553C8.24775 1.83526 8.32458 1.99091 8.47823 2.3022L9.93602 5.25551C9.98138 5.34741 10.0041 5.39336 10.0372 5.42904C10.0666 5.46063 10.1018 5.48622 10.1409 5.5044C10.185 5.52494 10.2357 5.53235 10.3371 5.54717L13.598 6.02379C13.9414 6.07398 14.113 6.09908 14.1925 6.18295C14.2616 6.25592 14.2941 6.35619 14.281 6.45584C14.2659 6.57038 14.1416 6.69144 13.893 6.93358L11.5343 9.23094C11.4608 9.30255 11.424 9.33836 11.4003 9.38096C11.3793 9.41869 11.3658 9.46013 11.3606 9.50299C11.3547 9.5514 11.3634 9.60199 11.3807 9.70315L11.9373 12.9481C11.996 13.2903 12.0253 13.4614 11.9702 13.563C11.9222 13.6513 11.8369 13.7133 11.738 13.7316C11.6244 13.7527 11.4707 13.6719 11.1634 13.5103L8.24823 11.9772C8.1574 11.9294 8.11199 11.9056 8.06414 11.8962C8.02178 11.8879 7.9782 11.8879 7.93584 11.8962C7.888 11.9056 7.84258 11.9294 7.75175 11.9772L4.8366 13.5103C4.52926 13.6719 4.37559 13.7527 4.26196 13.7316C4.1631 13.7133 4.07779 13.6513 4.0298 13.563C3.97465 13.4614 4.004 13.2903 4.0627 12.9481L4.61924 9.70315C4.63659 9.60199 4.64526 9.5514 4.63939 9.50299C4.6342 9.46013 4.62072 9.41869 4.59972 9.38096C4.57599 9.33836 4.53923 9.30255 4.4657 9.23094L2.10702 6.93358C1.85842 6.69144 1.73412 6.57038 1.719 6.45584C1.70584 6.35619 1.73835 6.25592 1.80748 6.18295C1.88694 6.09908 2.05863 6.07398 2.40201 6.02379L5.66285 5.54717C5.76426 5.53235 5.81497 5.52494 5.85912 5.5044C5.89822 5.48622 5.93342 5.46063 5.96277 5.42904C5.99592 5.39336 6.0186 5.34741 6.06396 5.25551L7.52175 2.3022Z" stroke="#101828" stroke-width="1.5" stroke-linecap="round" stroke-linejoin="round"/>
</g>
</svg>
