<svg width="49" height="48" viewBox="0 0 49 48" fill="none" xmlns="http://www.w3.org/2000/svg">
<g id="folder 1" clip-path="url(#clip0_127_373)">
<path id="Vector" d="M40.8114 27.5396H0.600624V11.6058C0.600624 9.48504 2.31986 7.76581 4.44058 7.76581H40.8114V27.5396Z" fill="#F6C358"/>
<path id="Vector_2" d="M44.4399 10.9139H4.75996V31.863H44.4399V10.9139Z" fill="#EBF0F3"/>
<path id="Vector_3" d="M48.6 7.92643V40.0736C48.6 42.1984 46.8784 43.9135 44.7601 43.9135H4.43996C2.3216 43.9135 0.600006 42.1984 0.600006 40.0736V18.1664C0.600006 16.0417 2.3216 14.3264 4.43996 14.3264H27.5247C28.9199 14.3264 30.2063 13.5648 30.8846 12.3425L34.0015 6.0641C34.6799 4.84169 35.9663 4.08647 37.3614 4.08647H44.7598C46.8784 4.08637 48.6 5.8016 48.6 7.92643Z" fill="#FCD462"/>
<path id="Vector_4" d="M48.6 37.8335V40.0736C48.6 42.1984 46.8784 43.9135 44.7601 43.9135H4.43996C2.3216 43.9135 0.600006 42.1984 0.600006 40.0736V37.8335H48.6Z" fill="#F6C358"/>
</g>
<defs>
<clipPath id="clip0_127_373">
<rect width="48" height="48" fill="white" transform="translate(0.600006)"/>
</clipPath>
</defs>
</svg>
